<?xml version="1.0" encoding="UTF-8" standalone="no"?>
<!DOCTYPE svg PUBLIC "-//W3C//DTD SVG 1.1//EN"
 "http://www.w3.org/Graphics/SVG/1.1/DTD/svg11.dtd">
<!-- Generated by graphviz version 2.50.0 (20211204.2007)
 -->
<!-- Title: void &lt;init&gt;() Pages: 1 -->
<svg width="161pt" height="211pt"
 viewBox="0.00 0.00 161.00 211.00" xmlns="http://www.w3.org/2000/svg" xmlns:xlink="http://www.w3.org/1999/xlink">
<g id="graph0" class="graph" transform="scale(1 1) rotate(0) translate(4 207)">
<title>void &lt;init&gt;()</title>
<polygon fill="white" stroke="transparent" points="-4,4 -4,-207 157,-207 157,4 -4,4"/>
<text text-anchor="middle" x="76.5" y="-7.8" font-family="Times,serif" font-size="14.00">void &lt;init&gt;()</text>
<!-- 0 -->
<g id="node1" class="node">
<title>0</title>
<polygon fill="gray" stroke="black" points="116.5,-203 36.5,-203 36.5,-167 116.5,-167 116.5,-203"/>
<text text-anchor="middle" x="76.5" y="-181.3" font-family="Times,serif" font-size="14.00">r0 := @this</text>
</g>
<!-- 1 -->
<g id="node2" class="node">
<title>1</title>
<polygon fill="none" stroke="black" points="153,-131 0,-131 0,-95 153,-95 153,-131"/>
<text text-anchor="middle" x="76.5" y="-109.3" font-family="Times,serif" font-size="14.00">specialinvoke r0.&lt;init&gt;()</text>
</g>
<!-- 0&#45;&gt;1 -->
<g id="edge1" class="edge">
<title>0&#45;&gt;1</title>
<path fill="none" stroke="black" d="M76.5,-166.7C76.5,-158.98 76.5,-149.71 76.5,-141.11"/>
<polygon fill="black" stroke="black" points="80,-141.1 76.5,-131.1 73,-141.1 80,-141.1"/>
</g>
<!-- 2 -->
<g id="node3" class="node">
<title>2</title>
<polygon fill="lightgray" stroke="black" points="103.5,-59 49.5,-59 49.5,-23 103.5,-23 103.5,-59"/>
<text text-anchor="middle" x="76.5" y="-37.3" font-family="Times,serif" font-size="14.00">return</text>
</g>
<!-- 1&#45;&gt;2 -->
<g id="edge2" class="edge">
<title>1&#45;&gt;2</title>
<path fill="none" stroke="black" d="M76.5,-94.7C76.5,-86.98 76.5,-77.71 76.5,-69.11"/>
<polygon fill="black" stroke="black" points="80,-69.1 76.5,-59.1 73,-69.1 80,-69.1"/>
</g>
</g>
</svg>
