<?xml version="1.0" encoding="UTF-8" standalone="no"?>
<!DOCTYPE svg PUBLIC "-//W3C//DTD SVG 1.1//EN"
 "http://www.w3.org/Graphics/SVG/1.1/DTD/svg11.dtd">
<!-- Generated by graphviz version 2.50.0 (20211204.2007)
 -->
<!-- Title: void main(java.lang.String[]) Pages: 1 -->
<svg width="184pt" height="499pt"
 viewBox="0.00 0.00 184.00 499.00" xmlns="http://www.w3.org/2000/svg" xmlns:xlink="http://www.w3.org/1999/xlink">
<g id="graph0" class="graph" transform="scale(1 1) rotate(0) translate(4 495)">
<title>void main(java.lang.String[])</title>
<polygon fill="white" stroke="transparent" points="-4,4 -4,-495 180,-495 180,4 -4,4"/>
<text text-anchor="middle" x="88" y="-7.8" font-family="Times,serif" font-size="14.00">void main(java.lang.String[])</text>
<!-- 0 -->
<g id="node1" class="node">
<title>0</title>
<polygon fill="gray" stroke="black" points="150.25,-491 28.25,-491 28.25,-455 150.25,-455 150.25,-491"/>
<text text-anchor="middle" x="89.25" y="-469.3" font-family="Times,serif" font-size="14.00">r1 := @parameter0</text>
</g>
<!-- 1 -->
<g id="node2" class="node">
<title>1</title>
<polygon fill="none" stroke="black" points="160.75,-419 17.75,-419 17.75,-383 160.75,-383 160.75,-419"/>
<text text-anchor="middle" x="89.25" y="-397.3" font-family="Times,serif" font-size="14.00">r0 = newarray (int)[10]</text>
</g>
<!-- 0&#45;&gt;1 -->
<g id="edge1" class="edge">
<title>0&#45;&gt;1</title>
<path fill="none" stroke="black" d="M89.25,-454.7C89.25,-446.98 89.25,-437.71 89.25,-429.11"/>
<polygon fill="black" stroke="black" points="92.75,-429.1 89.25,-419.1 85.75,-429.1 92.75,-429.1"/>
</g>
<!-- 2 -->
<g id="node3" class="node">
<title>2</title>
<polygon fill="none" stroke="black" points="116.25,-347 62.25,-347 62.25,-311 116.25,-311 116.25,-347"/>
<text text-anchor="middle" x="89.25" y="-325.3" font-family="Times,serif" font-size="14.00">i1 = 0</text>
</g>
<!-- 1&#45;&gt;2 -->
<g id="edge2" class="edge">
<title>1&#45;&gt;2</title>
<path fill="none" stroke="black" d="M89.25,-382.7C89.25,-374.98 89.25,-365.71 89.25,-357.11"/>
<polygon fill="black" stroke="black" points="92.75,-357.1 89.25,-347.1 85.75,-357.1 92.75,-357.1"/>
</g>
<!-- 3 -->
<g id="node4" class="node">
<title>3</title>
<polygon fill="none" stroke="black" points="147.25,-275 31.25,-275 31.25,-239 147.25,-239 147.25,-275"/>
<text text-anchor="middle" x="89.25" y="-253.3" font-family="Times,serif" font-size="14.00">label1: i1 = i1 + 1</text>
</g>
<!-- 2&#45;&gt;3 -->
<g id="edge3" class="edge">
<title>2&#45;&gt;3</title>
<path fill="none" stroke="black" d="M89.25,-310.7C89.25,-302.98 89.25,-293.71 89.25,-285.11"/>
<polygon fill="black" stroke="black" points="92.75,-285.1 89.25,-275.1 85.75,-285.1 92.75,-285.1"/>
</g>
<!-- 4 -->
<g id="node5" class="node">
<title>4</title>
<polygon fill="none" stroke="black" points="95.25,-203 15.25,-203 15.25,-167 95.25,-167 95.25,-203"/>
<text text-anchor="middle" x="55.25" y="-181.3" font-family="Times,serif" font-size="14.00">$i0 = r0[i1]</text>
</g>
<!-- 3&#45;&gt;4 -->
<g id="edge4" class="edge">
<title>3&#45;&gt;4</title>
<path fill="none" stroke="black" d="M80.85,-238.7C76.98,-230.73 72.3,-221.1 68.01,-212.26"/>
<polygon fill="black" stroke="black" points="71.08,-210.57 63.56,-203.1 64.78,-213.63 71.08,-210.57"/>
</g>
<!-- 5 -->
<g id="node6" class="node">
<title>5</title>
<polygon fill="none" stroke="black" points="159.25,-131 19.25,-131 19.25,-95 159.25,-95 159.25,-131"/>
<text text-anchor="middle" x="89.25" y="-109.3" font-family="Times,serif" font-size="14.00">if $i0 &lt; 10 goto label1</text>
</g>
<!-- 4&#45;&gt;5 -->
<g id="edge5" class="edge">
<title>4&#45;&gt;5</title>
<path fill="none" stroke="black" d="M63.65,-166.7C67.52,-158.73 72.2,-149.1 76.49,-140.26"/>
<polygon fill="black" stroke="black" points="79.72,-141.63 80.94,-131.1 73.42,-138.57 79.72,-141.63"/>
</g>
<!-- 5&#45;&gt;3 -->
<g id="edge6" class="edge">
<title>5&#45;&gt;3</title>
<path fill="none" stroke="black" d="M95.49,-131.41C98.82,-141.63 102.57,-154.88 104.25,-167 106.45,-182.85 106.45,-187.15 104.25,-203 103.07,-211.52 100.86,-220.61 98.5,-228.8"/>
<polygon fill="black" stroke="black" points="95.08,-228.01 95.49,-238.59 101.77,-230.06 95.08,-228.01"/>
</g>
<!-- 6 -->
<g id="node7" class="node">
<title>6</title>
<polygon fill="lightgray" stroke="black" points="116.25,-59 62.25,-59 62.25,-23 116.25,-23 116.25,-59"/>
<text text-anchor="middle" x="89.25" y="-37.3" font-family="Times,serif" font-size="14.00">return</text>
</g>
<!-- 5&#45;&gt;6 -->
<g id="edge7" class="edge">
<title>5&#45;&gt;6</title>
<path fill="none" stroke="black" d="M89.25,-94.7C89.25,-86.98 89.25,-77.71 89.25,-69.11"/>
<polygon fill="black" stroke="black" points="92.75,-69.1 89.25,-59.1 85.75,-69.1 92.75,-69.1"/>
</g>
</g>
</svg>
